<svg xmlns="http://www.w3.org/2000/svg" width="1200" height="630" viewBox="0 0 1200 630" fill="none">
  <defs>
    <linearGradient id="bgGrad" x1="90" y1="40" x2="1100" y2="600" gradientUnits="userSpaceOnUse">
      <stop offset="0" stop-color="#e7fbf8" />
      <stop offset="1" stop-color="#b8efe7" />
    </linearGradient>
    <linearGradient id="logoGrad" x1="0" y1="0" x2="88" y2="88" gradientUnits="userSpaceOnUse">
      <stop offset="0" stop-color="#0e7490" />
      <stop offset="1" stop-color="#0f766e" />
    </linearGradient>
  </defs>

  <rect width="1200" height="630" fill="url(#bgGrad)" />
  <circle cx="1060" cy="120" r="240" fill="#4fd1c51a" />
  <circle cx="120" cy="560" r="220" fill="#0f766e14" />

  <rect x="88" y="72" width="1024" height="486" rx="36" fill="#ffffff" fill-opacity="0.84" />
  <rect x="88" y="72" width="1024" height="486" rx="36" stroke="#bde9e2" stroke-width="2" />

  <g transform="translate(148 142)">
    <rect width="88" height="88" rx="24" fill="url(#logoGrad)" />
    <path d="M18 62V26l13.4 20.4L44 26l12.6 20.4L70 26v36" stroke="#e6fffb" stroke-width="7" stroke-linecap="round" stroke-linejoin="round" />
  </g>

  <text x="262" y="198" fill="#12474d" font-family="Manrope, Segoe UI, Arial, sans-serif" font-size="72" font-weight="800" letter-spacing="2">MEDIWO</text>
  <text x="148" y="282" fill="#26636a" font-family="Manrope, Segoe UI, Arial, sans-serif" font-size="34" font-weight="700">AI-Powered Medical Workflow Optimization</text>

  <text x="148" y="356" fill="#3d5f66" font-family="Manrope, Segoe UI, Arial, sans-serif" font-size="30" font-weight="500">
    Reduce waiting time with intelligent intake,
  </text>
  <text x="148" y="402" fill="#3d5f66" font-family="Manrope, Segoe UI, Arial, sans-serif" font-size="30" font-weight="500">
    real-time queue visibility, and clinician-ready summaries.
  </text>

  <rect x="148" y="452" width="360" height="62" rx="31" fill="#0f766e" />
  <text x="180" y="493" fill="#e8fffc" font-family="Manrope, Segoe UI, Arial, sans-serif" font-size="28" font-weight="700">Mediwo Health Platform</text>
</svg>
